<svg width="138" height="48" viewBox="0 0 138 48" fill="none" xmlns="http://www.w3.org/2000/svg">
<path d="M35.0795 16.2727V9.90909H60.3636V16.2727H51.6136V39H43.8295V16.2727H35.0795ZM70.7969 39.3977C68.4295 39.3977 66.4029 38.929 64.7173 37.9915C63.0317 37.0445 61.7391 35.7282 60.8395 34.0426C59.9399 32.3475 59.4901 30.3826 59.4901 28.1477C59.4901 25.9129 59.9399 23.9527 60.8395 22.267C61.7391 20.572 63.0317 19.2557 64.7173 18.3182C66.4029 17.3712 68.4295 16.8977 70.7969 16.8977C73.1643 16.8977 75.1908 17.3712 76.8764 18.3182C78.562 19.2557 79.8546 20.572 80.7543 22.267C81.6539 23.9527 82.1037 25.9129 82.1037 28.1477C82.1037 30.3826 81.6539 32.3475 80.7543 34.0426C79.8546 35.7282 78.562 37.0445 76.8764 37.9915C75.1908 38.929 73.1643 39.3977 70.7969 39.3977ZM70.8537 33.6023C71.5166 33.6023 72.0895 33.3797 72.5724 32.9347C73.0554 32.4896 73.4295 31.8551 73.6946 31.0312C73.9598 30.2074 74.0923 29.2273 74.0923 28.0909C74.0923 26.9451 73.9598 25.965 73.6946 25.1506C73.4295 24.3267 73.0554 23.6922 72.5724 23.2472C72.0895 22.8021 71.5166 22.5795 70.8537 22.5795C70.1529 22.5795 69.5516 22.8021 69.0497 23.2472C68.5478 23.6922 68.1643 24.3267 67.8991 25.1506C67.634 25.965 67.5014 26.9451 67.5014 28.0909C67.5014 29.2273 67.634 30.2074 67.8991 31.0312C68.1643 31.8551 68.5478 32.4896 69.0497 32.9347C69.5516 33.3797 70.1529 33.6023 70.8537 33.6023Z" fill="#4EA8DE"/>
<path d="M96.3651 39H85.1719V9.90909H96.2514C99.2438 9.90909 101.829 10.4915 104.007 11.6562C106.195 12.8116 107.88 14.4782 109.064 16.6562C110.257 18.8248 110.854 21.4242 110.854 24.4545C110.854 27.4848 110.262 30.089 109.078 32.267C107.894 34.4356 106.218 36.1023 104.05 37.267C101.881 38.4223 99.3196 39 96.3651 39ZM93.0696 32.2955H96.081C97.5204 32.2955 98.7467 32.0634 99.7599 31.5994C100.783 31.1354 101.559 30.3352 102.089 29.1989C102.629 28.0625 102.899 26.4811 102.899 24.4545C102.899 22.428 102.625 20.8466 102.075 19.7102C101.536 18.5739 100.74 17.7737 99.6889 17.3097C98.6473 16.8456 97.3688 16.6136 95.8537 16.6136H93.0696V32.2955ZM125.133 39.3977C122.765 39.3977 120.739 38.929 119.053 37.9915C117.368 37.0445 116.075 35.7282 115.175 34.0426C114.276 32.3475 113.826 30.3826 113.826 28.1477C113.826 25.9129 114.276 23.9527 115.175 22.267C116.075 20.572 117.368 19.2557 119.053 18.3182C120.739 17.3712 122.765 16.8977 125.133 16.8977C127.5 16.8977 129.527 17.3712 131.212 18.3182C132.898 19.2557 134.191 20.572 135.09 22.267C135.99 23.9527 136.44 25.9129 136.44 28.1477C136.44 30.3826 135.99 32.3475 135.09 34.0426C134.191 35.7282 132.898 37.0445 131.212 37.9915C129.527 38.929 127.5 39.3977 125.133 39.3977ZM125.19 33.6023C125.853 33.6023 126.425 33.3797 126.908 32.9347C127.391 32.4896 127.765 31.8551 128.031 31.0312C128.296 30.2074 128.428 29.2273 128.428 28.0909C128.428 26.9451 128.296 25.965 128.031 25.1506C127.765 24.3267 127.391 23.6922 126.908 23.2472C126.425 22.8021 125.853 22.5795 125.19 22.5795C124.489 22.5795 123.888 22.8021 123.386 23.2472C122.884 23.6922 122.5 24.3267 122.235 25.1506C121.97 25.965 121.837 26.9451 121.837 28.0909C121.837 29.2273 121.97 30.2074 122.235 31.0312C122.5 31.8551 122.884 32.4896 123.386 32.9347C123.888 33.3797 124.489 33.6023 125.19 33.6023Z" fill="#5E60CE"/>
<g clip-path="url(#clip0_12_482)">
<path d="M11.0214 12.933C14.1471 16.9011 15.8156 21.7944 15.7551 26.8155V28.0141L16.7864 28.6416C18.1188 29.4482 19.1126 30.6993 19.5865 32.1669C19.1704 31.8605 18.7351 31.5803 18.2831 31.3278L15.5331 29.7838L15.039 32.9001C14.9962 33.1755 14.9388 33.4485 14.8671 33.718H7.16138C7.0468 33.3655 6.9537 33.0129 6.86776 32.6463L6.24472 29.8261L3.70956 31.2362C3.28603 31.473 2.87711 31.7344 2.48495 32.0188C2.96812 30.5682 3.94111 29.3242 5.24211 28.4935L6.22323 27.866V26.7521C6.24093 21.7513 7.92955 16.8952 11.0286 12.933H11.0214ZM11.0286 10C10.8679 10.0004 10.7127 10.058 10.5917 10.1622L10.5273 10.2186C6.39766 14.7656 4.10454 20.6454 4.08196 26.745C2.32955 27.8643 1.03238 29.5543 0.417141 31.5197C-0.198101 33.485 -0.0922939 35.6007 0.716072 37.4971C1.56764 35.6455 2.99119 34.1058 4.78378 33.0975C4.96356 33.8642 5.20298 34.6161 5.49993 35.3467C5.53759 35.4871 5.62106 35.6114 5.73751 35.7006C5.85396 35.7898 5.99694 35.8388 6.14446 35.8402H16.0846C16.2851 35.8402 16.4856 35.6498 16.5859 35.3537C16.8757 34.6592 17.0777 33.9322 17.1874 33.1892C18.9834 34.1932 20.4082 35.7342 21.2551 37.5887C22.1123 35.7017 22.245 33.5727 21.6286 31.5967C21.0123 29.6206 19.6887 27.9319 17.9036 26.8437C17.9744 20.7082 15.6934 14.7718 11.5156 10.2186C11.4533 10.1501 11.3772 10.0952 11.2921 10.0576C11.2069 10.0199 11.1147 10.0003 11.0214 10H11.0286Z" fill="#4EA8DE"/>
<path d="M11.0213 26.1598C10.4713 26.1598 9.93351 25.9995 9.47587 25.699C9.01822 25.3986 8.66116 24.9715 8.44969 24.4716C8.23822 23.9716 8.18181 23.4213 8.28758 22.8898C8.39334 22.3584 8.65653 21.8697 9.04399 21.4853C9.43144 21.1009 9.92582 20.838 10.4648 20.7298C11.0038 20.6216 11.5632 20.6729 12.0726 20.8773C12.582 21.0816 13.0186 21.4298 13.3272 21.8781C13.6359 22.3263 13.8029 22.8545 13.8071 23.396C13.8157 23.7469 13.7539 24.0961 13.6254 24.4235C13.4969 24.751 13.304 25.0503 13.058 25.3043C12.8119 25.5583 12.5174 25.7622 12.1913 25.9041C11.8652 26.0461 11.5139 26.1234 11.1574 26.1316C11.1123 26.1387 11.0664 26.1387 11.0213 26.1316V26.1598Z" fill="#4EA8DE"/>
<path d="M14.8957 37.5958C14.7165 37.5901 14.538 37.6198 14.3706 37.683C14.2032 37.7462 14.0503 37.8416 13.9209 37.9638C13.7915 38.086 13.6881 38.2323 13.6169 38.3943C13.5458 38.5563 13.5082 38.7307 13.5063 38.9072V43.067C13.5063 43.4297 13.6527 43.7776 13.9133 44.0342C14.1738 44.2907 14.5272 44.4348 14.8957 44.4348C15.2641 44.4348 15.6175 44.2907 15.8781 44.0342C16.1386 43.7776 16.285 43.4297 16.285 43.067V38.9636C16.2907 38.7877 16.2608 38.6126 16.1971 38.4482C16.1333 38.2839 16.037 38.1337 15.9137 38.0064C15.7904 37.879 15.6425 37.7772 15.4788 37.7067C15.3151 37.6362 15.1388 37.5985 14.9601 37.5958H14.8957Z" fill="#5E60CE"/>
<path d="M7.1613 37.5958C6.97906 37.5863 6.79675 37.613 6.62521 37.6743C6.45367 37.7356 6.29641 37.8302 6.16278 37.9526C6.02915 38.0749 5.92188 38.2225 5.84736 38.3865C5.77284 38.5505 5.73259 38.7275 5.729 38.9072V43.067C5.729 43.4297 5.87538 43.7777 6.13593 44.0342C6.39648 44.2907 6.74986 44.4348 7.11833 44.4348C7.4868 44.4348 7.84018 44.2907 8.10073 44.0342C8.36128 43.7777 8.50765 43.4297 8.50765 43.067V38.9636C8.51337 38.7877 8.48349 38.6126 8.41974 38.4482C8.35599 38.2839 8.25965 38.1337 8.13634 38.0064C8.01302 37.879 7.8652 37.7772 7.70149 37.7067C7.53777 37.6362 7.36144 37.5985 7.18278 37.5958H7.1613Z" fill="#5E60CE"/>
<path d="M10.9211 37.5958C10.7424 37.592 10.5647 37.623 10.3981 37.6869C10.2316 37.7507 10.0795 37.8463 9.95044 37.9681C9.82142 38.0899 9.71804 38.2355 9.6462 38.3966C9.57435 38.5577 9.53546 38.7312 9.53174 38.9072V44.6392C9.53174 45.002 9.67811 45.3499 9.93866 45.6064C10.1992 45.8629 10.5526 46.007 10.9211 46.007C11.2895 46.007 11.6429 45.8629 11.9035 45.6064C12.164 45.3499 12.3104 45.002 12.3104 44.6392V38.9988C12.3161 38.823 12.2862 38.6478 12.2225 38.4835C12.1587 38.3191 12.0624 38.1689 11.9391 38.0416C11.8158 37.9143 11.6679 37.8124 11.5042 37.7419C11.3405 37.6714 11.1642 37.6337 10.9855 37.631L10.9211 37.5958Z" fill="#5E60CE"/>
</g>
<defs>
<clipPath id="clip0_12_482">
<rect width="22" height="36" fill="white" transform="translate(0 10)"/>
</clipPath>
</defs>
</svg>
